<?xml version="1.0" encoding="UTF-8" standalone="no"?>
<!DOCTYPE svg PUBLIC "-//W3C//DTD SVG 1.1//EN" "http://www.w3.org/Graphics/SVG/1.1/DTD/svg11.dtd">
<svg xmlns="http://www.w3.org/2000/svg" version="1.1" viewBox="0.00 0.00 946.00 260.00">
<g stroke-width="2.00" fill="none" stroke-linecap="butt">
<path stroke="#dfbde2" vector-effect="non-scaling-stroke" d="
  M 96.04 89.23
  Q 92.22 88.94 89.10 86.62
  C 84.03 82.85 82.90 77.81 82.59 71.63
  C 81.96 59.28 69.44 51.34 58.07 56.62
  C 49.56 60.58 45.81 70.33 49.35 78.96
  Q 52.62 86.94 61.79 89.27
  Q 63.33 89.66 67.75 89.65
  C 76.34 89.62 84.06 95.98 84.65 104.28
  Q 84.94 108.36 85.20 109.37
  C 86.84 115.76 83.25 121.89 77.49 124.46
  C 74.59 125.75 71.10 125.39 67.80 125.39
  A 6.47 6.34 -52.4 0 0 66.03 125.64
  Q 54.94 128.83 52.70 139.31
  C 51.42 145.32 53.73 151.91 58.51 155.89
  C 66.13 162.25 76.99 161.02 83.33 153.34
  C 86.67 149.31 87.01 145.60 86.65 139.37
  Q 86.01 128.47 96.89 123.88
  A 6.03 5.98 -56.8 0 1 99.14 123.40
  C 105.30 123.33 111.66 120.35 115.54 126.85
  Q 116.63 128.67 116.42 132.92
  Q 116.28 135.70 116.85 140.50
  Q 117.60 146.70 112.08 151.61
  C 109.14 154.23 104.80 154.53 101.00 154.73
  C 82.74 155.69 78.96 180.50 95.31 187.69
  C 106.17 192.48 119.67 184.65 119.50 172.26
  C 119.47 169.82 118.89 167.08 119.11 164.88
  Q 119.68 159.18 124.43 155.38
  C 128.09 152.46 132.31 152.35 137.19 151.92
  Q 140.83 151.59 143.26 152.36
  Q 155.14 156.10 155.40 169.63
  Q 155.60 180.12 164.47 184.89
  C 172.58 189.24 182.32 186.64 187.32 178.99
  Q 190.21 174.58 189.88 168.49
  Q 189.38 159.33 180.53 154.22
  Q 178.56 153.08 173.17 152.35
  A 5.13 4.98 -45.8 0 0 171.47 152.40
  Q 166.66 153.34 164.52 152.89
  C 156.11 151.09 151.07 145.13 151.01 136.64
  C 150.94 126.13 145.09 118.75 134.76 117.89
  C 132.17 117.68 128.53 118.85 125.77 118.08
  C 122.30 117.11 119.43 114.00 119.40 110.18
  C 119.38 107.75 119.73 104.65 119.22 102.44
  C 116.86 92.04 107.41 86.74 97.03 89.15
  A 3.14 3.09 -49.1 0 1 96.04 89.23"
/>
<path stroke="#f5daf3" vector-effect="non-scaling-stroke" d="
  M 223.60 73.40
  A 17.32 17.32 0.0 0 0 206.28 56.08
  A 17.32 17.32 0.0 0 0 188.96 73.40
  A 17.32 17.32 0.0 0 0 206.28 90.72
  A 17.32 17.32 0.0 0 0 223.60 73.40"
/>
<path stroke="#dfbde2" vector-effect="non-scaling-stroke" d="
  M 122.71 70.95
  A 17.35 17.33 32.1 0 0 126.84 88.91
  A 17.36 17.34 -28.1 0 0 142.45 93.64"
/>
<path stroke="#e5c4e6" vector-effect="non-scaling-stroke" d="
  M 142.45 93.64
  A 17.37 17.32 14.4 0 0 152.32 87.81
  A 17.33 17.32 -45.9 0 0 151.95 65.04
  A 17.33 17.32 57.9 0 0 132.57 60.58
  A 17.33 17.33 0.0 0 0 122.71 70.95"
/>
<path stroke="#c584ca" vector-effect="non-scaling-stroke" d="
  M 142.45 93.64
  L 122.71 70.95"
/>
<path stroke="#a8d7ea" vector-effect="non-scaling-stroke" d="
  M 422.3181 92.5065
  A 10.08 9.05 -1.1 0 0 412.0663 83.6517
  A 10.08 9.05 -1.1 0 0 402.1619 92.8935
  A 10.08 9.05 -1.1 0 0 412.4137 101.7483
  A 10.08 9.05 -1.1 0 0 422.3181 92.5065"
/>
<path stroke="#e5c4e6" vector-effect="non-scaling-stroke" d="
  M 188.93 104.79
  A 17.33 17.33 0.0 0 0 171.60 87.46
  A 17.33 17.33 0.0 0 0 154.27 104.79
  A 17.33 17.33 0.0 0 0 171.60 122.12
  A 17.33 17.33 0.0 0 0 188.93 104.79"
/>
<path stroke="#dfbde2" vector-effect="non-scaling-stroke" d="
  M 790.20 88.81
  A 0.36 0.36 0.0 0 0 789.84 88.45
  L 783.34 88.45
  A 0.36 0.36 0.0 0 0 782.98 88.81
  L 782.98 164.19
  A 0.36 0.36 0.0 0 0 783.34 164.55
  L 789.84 164.55
  A 0.36 0.36 0.0 0 0 790.20 164.19
  L 790.20 88.81"
/>
<path stroke="#dfbde2" vector-effect="non-scaling-stroke" d="
  M 860.09 118.93
  L 860.09 88.84
  A 0.41 0.41 0.0 0 0 859.68 88.43
  L 853.07 88.43
  A 0.41 0.41 0.0 0 0 852.66 88.84
  L 852.66 164.24
  A 0.30 0.30 0.0 0 0 852.96 164.54
  L 859.79 164.54
  A 0.30 0.30 0.0 0 0 860.09 164.24
  Q 860.10 144.72 860.08 135.49
  C 860.06 123.13 868.90 115.73 881.00 116.80
  C 890.71 117.65 895.26 124.80 895.28 134.00
  Q 895.32 151.45 895.26 164.14
  A 0.41 0.40 0.7 0 0 895.67 164.55
  L 902.04 164.55
  A 0.45 0.45 0.0 0 0 902.49 164.10
  Q 902.35 151.87 902.51 139.52
  Q 902.67 127.22 900.91 122.83
  Q 897.13 113.44 886.15 110.67
  C 883.82 110.08 881.26 110.38 878.99 110.30
  C 873.76 110.11 868.39 112.12 864.34 115.24
  C 862.68 116.52 861.63 118.15 860.48 119.11
  A 0.24 0.24 0.0 0 1 860.09 118.93"
/>
<path stroke="#a8d7ea" vector-effect="non-scaling-stroke" d="
  M 315.84 164.43
  A 0.34 0.34 0.0 0 0 316.10 164.55
  L 334.71 164.55
  A 0.34 0.34 0.0 0 0 334.97 164.00
  L 303.96 124.82
  A 0.34 0.34 0.0 0 1 303.98 124.38
  L 333.57 93.23
  A 0.34 0.34 0.0 0 0 333.33 92.66
  L 315.40 92.66
  A 0.34 0.34 0.0 0 0 315.15 92.77
  L 283.95 125.61
  A 0.34 0.34 0.0 0 1 283.36 125.38
  L 283.36 92.97
  A 0.34 0.34 0.0 0 0 283.02 92.63
  L 266.97 92.63
  A 0.34 0.34 0.0 0 0 266.63 92.97
  L 266.63 164.21
  A 0.34 0.34 0.0 0 0 266.97 164.55
  L 283.01 164.55
  A 0.34 0.34 0.0 0 0 283.35 164.21
  L 283.35 146.62
  A 0.34 0.34 0.0 0 1 283.44 146.38
  L 292.66 136.68
  A 0.34 0.34 0.0 0 1 293.17 136.70
  L 315.84 164.43"
/>
<path stroke="#dfbde2" vector-effect="non-scaling-stroke" d="
  M 609.30 131.77
  Q 630.25 131.77 631.23 131.77
  A 0.71 0.70 0.2 0 1 631.93 132.47
  L 631.93 164.04
  A 0.39 0.39 0.0 0 0 632.32 164.43
  L 638.99 164.43
  A 0.39 0.39 0.0 0 0 639.38 164.04
  L 639.38 92.77
  A 0.23 0.23 0.0 0 0 639.15 92.54
  L 632.19 92.54
  A 0.27 0.27 0.0 0 0 631.92 92.81
  L 631.92 124.54
  A 0.42 0.41 -89.9 0 1 631.51 124.96
  Q 628.67 124.97 609.30 124.97
  Q 589.93 124.98 587.09 124.97
  A 0.42 0.41 89.9 0 1 586.68 124.55
  L 586.67 92.82
  A 0.27 0.27 0.0 0 0 586.40 92.55
  L 579.44 92.55
  A 0.23 0.23 0.0 0 0 579.21 92.78
  L 579.24 164.05
  A 0.39 0.39 0.0 0 0 579.63 164.44
  L 586.30 164.44
  A 0.39 0.39 0.0 0 0 586.69 164.05
  L 586.68 132.48
  A 0.71 0.70 -0.2 0 1 587.38 131.77
  Q 588.35 131.77 609.30 131.77"
/>
<path stroke="#dfbde2" vector-effect="non-scaling-stroke" d="
  M 818.82 98.82
  L 812.60 98.82
  A 0.53 0.53 0.0 0 0 812.07 99.35
  L 812.07 110.07
  A 0.57 0.57 0.0 0 1 811.50 110.64
  L 802.95 110.64
  A 0.59 0.59 0.0 0 0 802.36 111.23
  L 802.36 116.09
  A 0.59 0.59 0.0 0 0 802.95 116.68
  L 811.67 116.68
  A 0.38 0.38 0.0 0 1 812.05 117.05
  Q 812.17 132.64 812.04 146.75
  C 811.98 153.32 812.48 158.40 817.67 162.36
  Q 820.53 164.55 825.70 165.03
  Q 832.80 165.69 838.55 162.21
  A 1.24 1.23 -29.4 0 0 839.01 160.59
  L 837.21 157.12
  A 0.91 0.91 0.0 0 0 835.89 156.79
  Q 832.28 159.28 827.99 158.92
  C 819.94 158.25 819.18 152.64 819.24 145.35
  Q 819.33 135.17 819.28 117.17
  A 0.48 0.48 0.0 0 1 819.76 116.69
  L 835.37 116.69
  A 0.59 0.58 -90.0 0 0 835.95 116.10
  L 835.95 111.17
  A 0.53 0.53 0.0 0 0 835.42 110.64
  L 819.89 110.64
  A 0.59 0.59 0.0 0 1 819.30 110.05
  L 819.30 99.30
  A 0.48 0.48 0.0 0 0 818.82 98.82"
/>
<path stroke="#a8d7ea" vector-effect="non-scaling-stroke" d="
  M 374.62 158.44
  L 374.62 163.97
  A 0.58 0.57 90.0 0 0 375.19 164.55
  L 389.19 164.55
  A 0.39 0.39 0.0 0 0 389.58 164.16
  Q 389.70 151.06 389.55 132.01
  C 389.47 122.57 385.86 114.51 376.79 110.96
  Q 366.73 107.02 354.71 109.27
  C 348.83 110.38 344.18 111.91 339.50 114.91
  A 0.59 0.59 0.0 0 0 339.29 115.68
  L 344.49 125.72
  A 0.58 0.58 0.0 0 0 345.32 125.95
  Q 351.38 122.11 358.46 121.32
  C 365.72 120.50 373.46 123.20 373.56 131.56
  A 0.61 0.61 0.0 0 1 372.95 132.18
  L 355.61 132.18
  A 1.40 1.26 -48.1 0 0 355.33 132.21
  C 348.03 133.75 341.08 135.31 338.10 142.71
  C 334.66 151.25 339.11 160.42 347.53 163.70
  C 355.17 166.68 368.78 166.65 374.26 158.34
  A 0.20 0.19 -28.8 0 1 374.62 158.44"
/>
<path stroke="#a8d7ea" vector-effect="non-scaling-stroke" d="
  M 476.41 115.43
  Q 469.45 108.50 458.97 108.49
  C 445.00 108.48 433.91 116.69 431.32 130.81
  C 430.10 137.46 431.89 145.97 436.28 151.48
  Q 445.74 163.34 462.30 161.78
  Q 470.39 161.02 475.90 155.49
  A 0.21 0.20 63.8 0 1 476.25 155.61
  Q 477.07 161.96 473.62 167.30
  C 467.70 176.47 447.63 172.30 441.21 166.76
  A 0.67 0.67 0.0 0 0 440.20 166.93
  L 434.30 177.16
  A 0.76 0.75 35.1 0 0 434.47 178.12
  Q 436.83 180.11 439.87 181.33
  Q 454.64 187.26 469.67 184.76
  C 483.86 182.40 492.08 172.74 492.21 158.49
  Q 492.36 140.60 492.27 109.79
  A 0.36 0.35 0.0 0 0 491.91 109.44
  L 477.51 109.44
  A 0.52 0.51 -90.0 0 0 477.00 109.96
  L 477.00 115.19
  A 0.35 0.34 22.5 0 1 476.41 115.43"
/>
<path stroke="#a8d7ea" vector-effect="non-scaling-stroke" d="
  M 503.17 137.13
  C 503.25 154.43 517.18 165.59 533.79 165.51
  C 550.40 165.44 564.23 154.14 564.15 136.84
  C 564.06 119.55 550.13 108.38 533.52 108.46
  C 516.91 108.54 503.08 119.84 503.17 137.13"
/>
<path stroke="#a8d7ea" vector-effect="non-scaling-stroke" d="
  M 420.19 109.84
  A 0.39 0.39 0.0 0 0 419.80 109.45
  L 404.62 109.45
  A 0.39 0.39 0.0 0 0 404.23 109.84
  L 404.23 164.16
  A 0.39 0.39 0.0 0 0 404.62 164.55
  L 419.80 164.55
  A 0.39 0.39 0.0 0 0 420.19 164.16
  L 420.19 109.84"
/>
<path stroke="#dfbde2" vector-effect="non-scaling-stroke" d="
  M 700.63 152.15
  C 695.75 157.77 687.59 159.44 680.31 158.34
  C 670.83 156.91 664.33 150.24 663.11 140.65
  A 0.57 0.56 86.4 0 1 663.67 140.01
  L 708.21 140.01
  A 0.48 0.48 0.0 0 0 708.69 139.56
  C 709.77 125.49 701.11 112.76 687.09 110.56
  C 670.63 107.96 656.43 119.29 656.06 136.13
  C 655.95 140.97 656.38 145.82 658.61 150.13
  Q 665.57 163.67 681.04 164.97
  Q 695.87 166.21 704.66 157.16
  A 1.05 1.04 -42.9 0 0 704.72 155.76
  L 701.79 152.17
  A 0.76 0.76 0.0 0 0 700.63 152.15"
/>
<path stroke="#dfbde2" vector-effect="non-scaling-stroke" d="
  M 755.87 157.01
  L 755.87 164.31
  A 0.25 0.25 0.0 0 0 756.12 164.56
  L 762.70 164.56
  A 0.31 0.30 -90.0 0 0 763.00 164.25
  Q 762.97 146.62 763.04 134.84
  C 763.10 125.38 762.03 117.54 753.84 113.00
  Q 748.48 110.02 740.01 110.20
  C 732.55 110.37 725.49 112.57 719.40 117.08
  A 0.42 0.41 58.1 0 0 719.28 117.61
  L 721.81 122.50
  A 0.50 0.49 57.8 0 0 722.55 122.67
  Q 732.12 115.28 743.96 116.80
  C 753.28 117.99 756.33 125.15 755.50 133.72
  A 0.56 0.56 0.0 0 1 754.94 134.22
  Q 736.84 134.26 735.74 134.25
  C 727.75 134.23 719.00 138.15 717.77 146.87
  Q 716.85 153.41 720.11 157.93
  C 724.70 164.30 732.31 165.46 740.02 165.02
  Q 750.30 164.44 755.47 156.88
  A 0.22 0.22 0.0 0 1 755.87 157.01"
/>
<path stroke="#e5c4e6" vector-effect="non-scaling-stroke" d="
  M 223.61 130.76
  A 17.31 17.31 0.0 0 0 206.30 113.45
  A 17.31 17.31 0.0 0 0 188.99 130.76
  A 17.31 17.31 0.0 0 0 206.30 148.07
  A 17.31 17.31 0.0 0 0 223.61 130.76"
/>
<path stroke="#dfbde2" vector-effect="non-scaling-stroke" d="
  M 155.31 195.67
  A 17.32 17.32 0.0 0 0 137.99 178.35
  A 17.32 17.32 0.0 0 0 120.67 195.67
  A 17.32 17.32 0.0 0 0 137.99 212.99
  A 17.32 17.32 0.0 0 0 155.31 195.67"
/>
<path stroke="#a8d7ea" vector-effect="non-scaling-stroke" d="
  M 372.96 141.57
  Q 366.59 141.41 362.02 141.63
  Q 356.86 141.88 355.32 142.96
  C 351.90 145.35 351.71 151.34 355.67 153.31
  Q 361.31 156.11 367.36 153.57
  Q 374.92 150.39 373.50 142.04
  A 0.57 0.56 85.6 0 0 372.96 141.57"
/>
<path stroke="#a8d7ea" vector-effect="non-scaling-stroke" d="
  M 447.2102 135.2228
  A 14.75 13.72 -179.7 0 0 461.8882 149.0198
  A 14.75 13.72 -179.7 0 0 476.7098 135.3772
  A 14.75 13.72 -179.7 0 0 462.0318 121.5802
  A 14.75 13.72 -179.7 0 0 447.2102 135.2228"
/>
<path stroke="#a8d7ea" vector-effect="non-scaling-stroke" d="
  M 547.60 134.71
  A 12.74 12.74 0.0 0 0 534.86 121.97
  L 532.46 121.97
  A 12.74 12.74 0.0 0 0 519.72 134.71
  L 519.72 139.29
  A 12.74 12.74 0.0 0 0 532.46 152.03
  L 534.86 152.03
  A 12.74 12.74 0.0 0 0 547.60 139.29
  L 547.60 134.71"
/>
<path stroke="#dfbde2" vector-effect="non-scaling-stroke" d="
  M 663.53 134.28
  L 701.25 134.34
  A 0.13 0.13 0.0 0 0 701.38 134.21
  L 701.38 134.05
  A 18.97 17.53 0.1 0 0 682.45 116.49
  L 682.41 116.49
  A 18.97 17.53 0.1 0 0 663.40 133.99
  L 663.40 134.15
  A 0.13 0.13 0.0 0 0 663.53 134.28"
/>
<path stroke="#dfbde2" vector-effect="non-scaling-stroke" d="
  M 754.93 139.82
  Q 738.56 139.65 733.59 140.09
  Q 727.30 140.66 725.27 146.11
  C 723.01 152.21 727.22 157.45 733.14 158.85
  C 742.25 161.00 751.00 158.04 755.40 149.24
  A 2.06 1.96 59.5 0 0 755.61 148.34
  L 755.61 140.50
  A 0.68 0.68 0.0 0 0 754.93 139.82"
/>
</g>
<path fill="#fffdfe" d="
  M 946.00 0.00
  L 946.00 260.00
  L 0.00 260.00
  L 0.00 0.00
  L 946.00 0.00
  Z
  M 96.04 89.23
  Q 92.22 88.94 89.10 86.62
  C 84.03 82.85 82.90 77.81 82.59 71.63
  C 81.96 59.28 69.44 51.34 58.07 56.62
  C 49.56 60.58 45.81 70.33 49.35 78.96
  Q 52.62 86.94 61.79 89.27
  Q 63.33 89.66 67.75 89.65
  C 76.34 89.62 84.06 95.98 84.65 104.28
  Q 84.94 108.36 85.20 109.37
  C 86.84 115.76 83.25 121.89 77.49 124.46
  C 74.59 125.75 71.10 125.39 67.80 125.39
  A 6.47 6.34 -52.4 0 0 66.03 125.64
  Q 54.94 128.83 52.70 139.31
  C 51.42 145.32 53.73 151.91 58.51 155.89
  C 66.13 162.25 76.99 161.02 83.33 153.34
  C 86.67 149.31 87.01 145.60 86.65 139.37
  Q 86.01 128.47 96.89 123.88
  A 6.03 5.98 -56.8 0 1 99.14 123.40
  C 105.30 123.33 111.66 120.35 115.54 126.85
  Q 116.63 128.67 116.42 132.92
  Q 116.28 135.70 116.85 140.50
  Q 117.60 146.70 112.08 151.61
  C 109.14 154.23 104.80 154.53 101.00 154.73
  C 82.74 155.69 78.96 180.50 95.31 187.69
  C 106.17 192.48 119.67 184.65 119.50 172.26
  C 119.47 169.82 118.89 167.08 119.11 164.88
  Q 119.68 159.18 124.43 155.38
  C 128.09 152.46 132.31 152.35 137.19 151.92
  Q 140.83 151.59 143.26 152.36
  Q 155.14 156.10 155.40 169.63
  Q 155.60 180.12 164.47 184.89
  C 172.58 189.24 182.32 186.64 187.32 178.99
  Q 190.21 174.58 189.88 168.49
  Q 189.38 159.33 180.53 154.22
  Q 178.56 153.08 173.17 152.35
  A 5.13 4.98 -45.8 0 0 171.47 152.40
  Q 166.66 153.34 164.52 152.89
  C 156.11 151.09 151.07 145.13 151.01 136.64
  C 150.94 126.13 145.09 118.75 134.76 117.89
  C 132.17 117.68 128.53 118.85 125.77 118.08
  C 122.30 117.11 119.43 114.00 119.40 110.18
  C 119.38 107.75 119.73 104.65 119.22 102.44
  C 116.86 92.04 107.41 86.74 97.03 89.15
  A 3.14 3.09 -49.1 0 1 96.04 89.23
  Z
  M 223.60 73.40
  A 17.32 17.32 0.0 0 0 206.28 56.08
  A 17.32 17.32 0.0 0 0 188.96 73.40
  A 17.32 17.32 0.0 0 0 206.28 90.72
  A 17.32 17.32 0.0 0 0 223.60 73.40
  Z
  M 122.71 70.95
  A 17.35 17.33 32.1 0 0 126.84 88.91
  A 17.36 17.34 -28.1 0 0 142.45 93.64
  A 17.37 17.32 14.4 0 0 152.32 87.81
  A 17.33 17.32 -45.9 0 0 151.95 65.04
  A 17.33 17.32 57.9 0 0 132.57 60.58
  A 17.33 17.33 0.0 0 0 122.71 70.95
  Z
  M 422.3181 92.5065
  A 10.08 9.05 -1.1 0 0 412.0663 83.6517
  A 10.08 9.05 -1.1 0 0 402.1619 92.8935
  A 10.08 9.05 -1.1 0 0 412.4137 101.7483
  A 10.08 9.05 -1.1 0 0 422.3181 92.5065
  Z
  M 188.93 104.79
  A 17.33 17.33 0.0 0 0 171.60 87.46
  A 17.33 17.33 0.0 0 0 154.27 104.79
  A 17.33 17.33 0.0 0 0 171.60 122.12
  A 17.33 17.33 0.0 0 0 188.93 104.79
  Z
  M 790.20 88.81
  A 0.36 0.36 0.0 0 0 789.84 88.45
  L 783.34 88.45
  A 0.36 0.36 0.0 0 0 782.98 88.81
  L 782.98 164.19
  A 0.36 0.36 0.0 0 0 783.34 164.55
  L 789.84 164.55
  A 0.36 0.36 0.0 0 0 790.20 164.19
  L 790.20 88.81
  Z
  M 860.09 118.93
  L 860.09 88.84
  A 0.41 0.41 0.0 0 0 859.68 88.43
  L 853.07 88.43
  A 0.41 0.41 0.0 0 0 852.66 88.84
  L 852.66 164.24
  A 0.30 0.30 0.0 0 0 852.96 164.54
  L 859.79 164.54
  A 0.30 0.30 0.0 0 0 860.09 164.24
  Q 860.10 144.72 860.08 135.49
  C 860.06 123.13 868.90 115.73 881.00 116.80
  C 890.71 117.65 895.26 124.80 895.28 134.00
  Q 895.32 151.45 895.26 164.14
  A 0.41 0.40 0.7 0 0 895.67 164.55
  L 902.04 164.55
  A 0.45 0.45 0.0 0 0 902.49 164.10
  Q 902.35 151.87 902.51 139.52
  Q 902.67 127.22 900.91 122.83
  Q 897.13 113.44 886.15 110.67
  C 883.82 110.08 881.26 110.38 878.99 110.30
  C 873.76 110.11 868.39 112.12 864.34 115.24
  C 862.68 116.52 861.63 118.15 860.48 119.11
  A 0.24 0.24 0.0 0 1 860.09 118.93
  Z
  M 315.84 164.43
  A 0.34 0.34 0.0 0 0 316.10 164.55
  L 334.71 164.55
  A 0.34 0.34 0.0 0 0 334.97 164.00
  L 303.96 124.82
  A 0.34 0.34 0.0 0 1 303.98 124.38
  L 333.57 93.23
  A 0.34 0.34 0.0 0 0 333.33 92.66
  L 315.40 92.66
  A 0.34 0.34 0.0 0 0 315.15 92.77
  L 283.95 125.61
  A 0.34 0.34 0.0 0 1 283.36 125.38
  L 283.36 92.97
  A 0.34 0.34 0.0 0 0 283.02 92.63
  L 266.97 92.63
  A 0.34 0.34 0.0 0 0 266.63 92.97
  L 266.63 164.21
  A 0.34 0.34 0.0 0 0 266.97 164.55
  L 283.01 164.55
  A 0.34 0.34 0.0 0 0 283.35 164.21
  L 283.35 146.62
  A 0.34 0.34 0.0 0 1 283.44 146.38
  L 292.66 136.68
  A 0.34 0.34 0.0 0 1 293.17 136.70
  L 315.84 164.43
  Z
  M 609.30 131.77
  Q 630.25 131.77 631.23 131.77
  A 0.71 0.70 0.2 0 1 631.93 132.47
  L 631.93 164.04
  A 0.39 0.39 0.0 0 0 632.32 164.43
  L 638.99 164.43
  A 0.39 0.39 0.0 0 0 639.38 164.04
  L 639.38 92.77
  A 0.23 0.23 0.0 0 0 639.15 92.54
  L 632.19 92.54
  A 0.27 0.27 0.0 0 0 631.92 92.81
  L 631.92 124.54
  A 0.42 0.41 -89.9 0 1 631.51 124.96
  Q 628.67 124.97 609.30 124.97
  Q 589.93 124.98 587.09 124.97
  A 0.42 0.41 89.9 0 1 586.68 124.55
  L 586.67 92.82
  A 0.27 0.27 0.0 0 0 586.40 92.55
  L 579.44 92.55
  A 0.23 0.23 0.0 0 0 579.21 92.78
  L 579.24 164.05
  A 0.39 0.39 0.0 0 0 579.63 164.44
  L 586.30 164.44
  A 0.39 0.39 0.0 0 0 586.69 164.05
  L 586.68 132.48
  A 0.71 0.70 -0.2 0 1 587.38 131.77
  Q 588.35 131.77 609.30 131.77
  Z
  M 818.82 98.82
  L 812.60 98.82
  A 0.53 0.53 0.0 0 0 812.07 99.35
  L 812.07 110.07
  A 0.57 0.57 0.0 0 1 811.50 110.64
  L 802.95 110.64
  A 0.59 0.59 0.0 0 0 802.36 111.23
  L 802.36 116.09
  A 0.59 0.59 0.0 0 0 802.95 116.68
  L 811.67 116.68
  A 0.38 0.38 0.0 0 1 812.05 117.05
  Q 812.17 132.64 812.04 146.75
  C 811.98 153.32 812.48 158.40 817.67 162.36
  Q 820.53 164.55 825.70 165.03
  Q 832.80 165.69 838.55 162.21
  A 1.24 1.23 -29.4 0 0 839.01 160.59
  L 837.21 157.12
  A 0.91 0.91 0.0 0 0 835.89 156.79
  Q 832.28 159.28 827.99 158.92
  C 819.94 158.25 819.18 152.64 819.24 145.35
  Q 819.33 135.17 819.28 117.17
  A 0.48 0.48 0.0 0 1 819.76 116.69
  L 835.37 116.69
  A 0.59 0.58 -90.0 0 0 835.95 116.10
  L 835.95 111.17
  A 0.53 0.53 0.0 0 0 835.42 110.64
  L 819.89 110.64
  A 0.59 0.59 0.0 0 1 819.30 110.05
  L 819.30 99.30
  A 0.48 0.48 0.0 0 0 818.82 98.82
  Z
  M 374.62 158.44
  L 374.62 163.97
  A 0.58 0.57 90.0 0 0 375.19 164.55
  L 389.19 164.55
  A 0.39 0.39 0.0 0 0 389.58 164.16
  Q 389.70 151.06 389.55 132.01
  C 389.47 122.57 385.86 114.51 376.79 110.96
  Q 366.73 107.02 354.71 109.27
  C 348.83 110.38 344.18 111.91 339.50 114.91
  A 0.59 0.59 0.0 0 0 339.29 115.68
  L 344.49 125.72
  A 0.58 0.58 0.0 0 0 345.32 125.95
  Q 351.38 122.11 358.46 121.32
  C 365.72 120.50 373.46 123.20 373.56 131.56
  A 0.61 0.61 0.0 0 1 372.95 132.18
  L 355.61 132.18
  A 1.40 1.26 -48.1 0 0 355.33 132.21
  C 348.03 133.75 341.08 135.31 338.10 142.71
  C 334.66 151.25 339.11 160.42 347.53 163.70
  C 355.17 166.68 368.78 166.65 374.26 158.34
  A 0.20 0.19 -28.8 0 1 374.62 158.44
  Z
  M 476.41 115.43
  Q 469.45 108.50 458.97 108.49
  C 445.00 108.48 433.91 116.69 431.32 130.81
  C 430.10 137.46 431.89 145.97 436.28 151.48
  Q 445.74 163.34 462.30 161.78
  Q 470.39 161.02 475.90 155.49
  A 0.21 0.20 63.8 0 1 476.25 155.61
  Q 477.07 161.96 473.62 167.30
  C 467.70 176.47 447.63 172.30 441.21 166.76
  A 0.67 0.67 0.0 0 0 440.20 166.93
  L 434.30 177.16
  A 0.76 0.75 35.1 0 0 434.47 178.12
  Q 436.83 180.11 439.87 181.33
  Q 454.64 187.26 469.67 184.76
  C 483.86 182.40 492.08 172.74 492.21 158.49
  Q 492.36 140.60 492.27 109.79
  A 0.36 0.35 0.0 0 0 491.91 109.44
  L 477.51 109.44
  A 0.52 0.51 -90.0 0 0 477.00 109.96
  L 477.00 115.19
  A 0.35 0.34 22.5 0 1 476.41 115.43
  Z
  M 503.17 137.13
  C 503.25 154.43 517.18 165.59 533.79 165.51
  C 550.40 165.44 564.23 154.14 564.15 136.84
  C 564.06 119.55 550.13 108.38 533.52 108.46
  C 516.91 108.54 503.08 119.84 503.17 137.13
  Z
  M 420.19 109.84
  A 0.39 0.39 0.0 0 0 419.80 109.45
  L 404.62 109.45
  A 0.39 0.39 0.0 0 0 404.23 109.84
  L 404.23 164.16
  A 0.39 0.39 0.0 0 0 404.62 164.55
  L 419.80 164.55
  A 0.39 0.39 0.0 0 0 420.19 164.16
  L 420.19 109.84
  Z
  M 700.63 152.15
  C 695.75 157.77 687.59 159.44 680.31 158.34
  C 670.83 156.91 664.33 150.24 663.11 140.65
  A 0.57 0.56 86.4 0 1 663.67 140.01
  L 708.21 140.01
  A 0.48 0.48 0.0 0 0 708.69 139.56
  C 709.77 125.49 701.11 112.76 687.09 110.56
  C 670.63 107.96 656.43 119.29 656.06 136.13
  C 655.95 140.97 656.38 145.82 658.61 150.13
  Q 665.57 163.67 681.04 164.97
  Q 695.87 166.21 704.66 157.16
  A 1.05 1.04 -42.9 0 0 704.72 155.76
  L 701.79 152.17
  A 0.76 0.76 0.0 0 0 700.63 152.15
  Z
  M 755.87 157.01
  L 755.87 164.31
  A 0.25 0.25 0.0 0 0 756.12 164.56
  L 762.70 164.56
  A 0.31 0.30 -90.0 0 0 763.00 164.25
  Q 762.97 146.62 763.04 134.84
  C 763.10 125.38 762.03 117.54 753.84 113.00
  Q 748.48 110.02 740.01 110.20
  C 732.55 110.37 725.49 112.57 719.40 117.08
  A 0.42 0.41 58.1 0 0 719.28 117.61
  L 721.81 122.50
  A 0.50 0.49 57.8 0 0 722.55 122.67
  Q 732.12 115.28 743.96 116.80
  C 753.28 117.99 756.33 125.15 755.50 133.72
  A 0.56 0.56 0.0 0 1 754.94 134.22
  Q 736.84 134.26 735.74 134.25
  C 727.75 134.23 719.00 138.15 717.77 146.87
  Q 716.85 153.41 720.11 157.93
  C 724.70 164.30 732.31 165.46 740.02 165.02
  Q 750.30 164.44 755.47 156.88
  A 0.22 0.22 0.0 0 1 755.87 157.01
  Z
  M 223.61 130.76
  A 17.31 17.31 0.0 0 0 206.30 113.45
  A 17.31 17.31 0.0 0 0 188.99 130.76
  A 17.31 17.31 0.0 0 0 206.30 148.07
  A 17.31 17.31 0.0 0 0 223.61 130.76
  Z
  M 155.31 195.67
  A 17.32 17.32 0.0 0 0 137.99 178.35
  A 17.32 17.32 0.0 0 0 120.67 195.67
  A 17.32 17.32 0.0 0 0 137.99 212.99
  A 17.32 17.32 0.0 0 0 155.31 195.67
  Z"
/>
<path fill="#bf7cc5" d="
  M 97.03 89.15
  C 107.41 86.74 116.86 92.04 119.22 102.44
  C 119.73 104.65 119.38 107.75 119.40 110.18
  C 119.43 114.00 122.30 117.11 125.77 118.08
  C 128.53 118.85 132.17 117.68 134.76 117.89
  C 145.09 118.75 150.94 126.13 151.01 136.64
  C 151.07 145.13 156.11 151.09 164.52 152.89
  Q 166.66 153.34 171.47 152.40
  A 5.13 4.98 -45.8 0 1 173.17 152.35
  Q 178.56 153.08 180.53 154.22
  Q 189.38 159.33 189.88 168.49
  Q 190.21 174.58 187.32 178.99
  C 182.32 186.64 172.58 189.24 164.47 184.89
  Q 155.60 180.12 155.40 169.63
  Q 155.14 156.10 143.26 152.36
  Q 140.83 151.59 137.19 151.92
  C 132.31 152.35 128.09 152.46 124.43 155.38
  Q 119.68 159.18 119.11 164.88
  C 118.89 167.08 119.47 169.82 119.50 172.26
  C 119.67 184.65 106.17 192.48 95.31 187.69
  C 78.96 180.50 82.74 155.69 101.00 154.73
  C 104.80 154.53 109.14 154.23 112.08 151.61
  Q 117.60 146.70 116.85 140.50
  Q 116.28 135.70 116.42 132.92
  Q 116.63 128.67 115.54 126.85
  C 111.66 120.35 105.30 123.33 99.14 123.40
  A 6.03 5.98 -56.8 0 0 96.89 123.88
  Q 86.01 128.47 86.65 139.37
  C 87.01 145.60 86.67 149.31 83.33 153.34
  C 76.99 161.02 66.13 162.25 58.51 155.89
  C 53.73 151.91 51.42 145.32 52.70 139.31
  Q 54.94 128.83 66.03 125.64
  A 6.47 6.34 -52.4 0 1 67.80 125.39
  C 71.10 125.39 74.59 125.75 77.49 124.46
  C 83.25 121.89 86.84 115.76 85.20 109.37
  Q 84.94 108.36 84.65 104.28
  C 84.06 95.98 76.34 89.62 67.75 89.65
  Q 63.33 89.66 61.79 89.27
  Q 52.62 86.94 49.35 78.96
  C 45.81 70.33 49.56 60.58 58.07 56.62
  C 69.44 51.34 81.96 59.28 82.59 71.63
  C 82.90 77.81 84.03 82.85 89.10 86.62
  Q 92.22 88.94 96.04 89.23
  A 3.14 3.09 -49.1 0 0 97.03 89.15
  Z"
/>
<circle fill="#ebb7e8" cx="206.28" cy="73.40" r="17.32"/>
<path fill="#ca8bce" d="
  M 142.45 93.64
  L 122.71 70.95
  A 17.33 17.33 0.0 0 1 132.57 60.58
  A 17.33 17.32 57.9 0 1 151.95 65.04
  A 17.33 17.32 -45.9 0 1 152.32 87.81
  A 17.37 17.32 14.4 0 1 142.45 93.64
  Z"
/>
<path fill="#bf7cc5" d="
  M 142.45 93.64
  A 17.36 17.34 -28.1 0 1 126.84 88.91
  A 17.35 17.33 32.1 0 1 122.71 70.95
  L 142.45 93.64
  Z"
/>
<ellipse fill="#51b1d6" cx="0.00" cy="0.00" transform="translate(412.24,92.70) rotate(-1.1)" rx="10.08" ry="9.05"/>
<circle fill="#ca8bce" cx="171.60" cy="104.79" r="17.33"/>
<rect fill="#bf7cc5" x="782.98" y="88.45" width="7.22" height="76.10" rx="0.36"/>
<path fill="#bf7cc5" d="
  M 860.48 119.11
  C 861.63 118.15 862.68 116.52 864.34 115.24
  C 868.39 112.12 873.76 110.11 878.99 110.30
  C 881.26 110.38 883.82 110.08 886.15 110.67
  Q 897.13 113.44 900.91 122.83
  Q 902.67 127.22 902.51 139.52
  Q 902.35 151.87 902.49 164.10
  A 0.45 0.45 0.0 0 1 902.04 164.55
  L 895.67 164.55
  A 0.41 0.40 0.7 0 1 895.26 164.14
  Q 895.32 151.45 895.28 134.00
  C 895.26 124.80 890.71 117.65 881.00 116.80
  C 868.90 115.73 860.06 123.13 860.08 135.49
  Q 860.10 144.72 860.09 164.24
  A 0.30 0.30 0.0 0 1 859.79 164.54
  L 852.96 164.54
  A 0.30 0.30 0.0 0 1 852.66 164.24
  L 852.66 88.84
  A 0.41 0.41 0.0 0 1 853.07 88.43
  L 859.68 88.43
  A 0.41 0.41 0.0 0 1 860.09 88.84
  L 860.09 118.93
  A 0.24 0.24 0.0 0 0 860.48 119.11
  Z"
/>
<path fill="#51b1d6" d="
  M 315.84 164.43
  L 293.17 136.70
  A 0.34 0.34 0.0 0 0 292.66 136.68
  L 283.44 146.38
  A 0.34 0.34 0.0 0 0 283.35 146.62
  L 283.35 164.21
  A 0.34 0.34 0.0 0 1 283.01 164.55
  L 266.97 164.55
  A 0.34 0.34 0.0 0 1 266.63 164.21
  L 266.63 92.97
  A 0.34 0.34 0.0 0 1 266.97 92.63
  L 283.02 92.63
  A 0.34 0.34 0.0 0 1 283.36 92.97
  L 283.36 125.38
  A 0.34 0.34 0.0 0 0 283.95 125.61
  L 315.15 92.77
  A 0.34 0.34 0.0 0 1 315.40 92.66
  L 333.33 92.66
  A 0.34 0.34 0.0 0 1 333.57 93.23
  L 303.98 124.38
  A 0.34 0.34 0.0 0 0 303.96 124.82
  L 334.97 164.00
  A 0.34 0.34 0.0 0 1 334.71 164.55
  L 316.10 164.55
  A 0.34 0.34 0.0 0 1 315.84 164.43
  Z"
/>
<path fill="#bf7cc5" d="
  M 609.30 124.97
  Q 628.67 124.97 631.51 124.96
  A 0.42 0.41 -89.9 0 0 631.92 124.54
  L 631.92 92.81
  A 0.27 0.27 0.0 0 1 632.19 92.54
  L 639.15 92.54
  A 0.23 0.23 0.0 0 1 639.38 92.77
  L 639.38 164.04
  A 0.39 0.39 0.0 0 1 638.99 164.43
  L 632.32 164.43
  A 0.39 0.39 0.0 0 1 631.93 164.04
  L 631.93 132.47
  A 0.71 0.70 0.2 0 0 631.23 131.77
  Q 630.25 131.77 609.30 131.77
  Q 588.35 131.77 587.38 131.77
  A 0.71 0.70 -0.2 0 0 586.68 132.48
  L 586.69 164.05
  A 0.39 0.39 0.0 0 1 586.30 164.44
  L 579.63 164.44
  A 0.39 0.39 0.0 0 1 579.24 164.05
  L 579.21 92.78
  A 0.23 0.23 0.0 0 1 579.44 92.55
  L 586.40 92.55
  A 0.27 0.27 0.0 0 1 586.67 92.82
  L 586.68 124.55
  A 0.42 0.41 89.9 0 0 587.09 124.97
  Q 589.93 124.98 609.30 124.97
  Z"
/>
<path fill="#bf7cc5" d="
  M 819.30 99.30
  L 819.30 110.05
  A 0.59 0.59 0.0 0 0 819.89 110.64
  L 835.42 110.64
  A 0.53 0.53 0.0 0 1 835.95 111.17
  L 835.95 116.10
  A 0.59 0.58 -90.0 0 1 835.37 116.69
  L 819.76 116.69
  A 0.48 0.48 0.0 0 0 819.28 117.17
  Q 819.33 135.17 819.24 145.35
  C 819.18 152.64 819.94 158.25 827.99 158.92
  Q 832.28 159.28 835.89 156.79
  A 0.91 0.91 0.0 0 1 837.21 157.12
  L 839.01 160.59
  A 1.24 1.23 -29.4 0 1 838.55 162.21
  Q 832.80 165.69 825.70 165.03
  Q 820.53 164.55 817.67 162.36
  C 812.48 158.40 811.98 153.32 812.04 146.75
  Q 812.17 132.64 812.05 117.05
  A 0.38 0.38 0.0 0 0 811.67 116.68
  L 802.95 116.68
  A 0.59 0.59 0.0 0 1 802.36 116.09
  L 802.36 111.23
  A 0.59 0.59 0.0 0 1 802.95 110.64
  L 811.50 110.64
  A 0.57 0.57 0.0 0 0 812.07 110.07
  L 812.07 99.35
  A 0.53 0.53 0.0 0 1 812.60 98.82
  L 818.82 98.82
  A 0.48 0.48 0.0 0 1 819.30 99.30
  Z"
/>
<path fill="#51b1d6" d="
  M 374.62 158.44
  A 0.20 0.19 -28.8 0 0 374.26 158.34
  C 368.78 166.65 355.17 166.68 347.53 163.70
  C 339.11 160.42 334.66 151.25 338.10 142.71
  C 341.08 135.31 348.03 133.75 355.33 132.21
  A 1.40 1.26 -48.1 0 1 355.61 132.18
  L 372.95 132.18
  A 0.61 0.61 0.0 0 0 373.56 131.56
  C 373.46 123.20 365.72 120.50 358.46 121.32
  Q 351.38 122.11 345.32 125.95
  A 0.58 0.58 0.0 0 1 344.49 125.72
  L 339.29 115.68
  A 0.59 0.59 0.0 0 1 339.50 114.91
  C 344.18 111.91 348.83 110.38 354.71 109.27
  Q 366.73 107.02 376.79 110.96
  C 385.86 114.51 389.47 122.57 389.55 132.01
  Q 389.70 151.06 389.58 164.16
  A 0.39 0.39 0.0 0 1 389.19 164.55
  L 375.19 164.55
  A 0.58 0.57 -90.0 0 1 374.62 163.97
  L 374.62 158.44
  Z
  M 372.96 141.57
  Q 366.59 141.41 362.02 141.63
  Q 356.86 141.88 355.32 142.96
  C 351.90 145.35 351.71 151.34 355.67 153.31
  Q 361.31 156.11 367.36 153.57
  Q 374.92 150.39 373.50 142.04
  A 0.57 0.56 85.6 0 0 372.96 141.57
  Z"
/>
<path fill="#51b1d6" d="
  M 477.00 115.19
  L 477.00 109.96
  A 0.52 0.51 90.0 0 1 477.51 109.44
  L 491.91 109.44
  A 0.36 0.35 -0.0 0 1 492.27 109.79
  Q 492.36 140.60 492.21 158.49
  C 492.08 172.74 483.86 182.40 469.67 184.76
  Q 454.64 187.26 439.87 181.33
  Q 436.83 180.11 434.47 178.12
  A 0.76 0.75 35.1 0 1 434.30 177.16
  L 440.20 166.93
  A 0.67 0.67 0.0 0 1 441.21 166.76
  C 447.63 172.30 467.70 176.47 473.62 167.30
  Q 477.07 161.96 476.25 155.61
  A 0.21 0.20 63.8 0 0 475.90 155.49
  Q 470.39 161.02 462.30 161.78
  Q 445.74 163.34 436.28 151.48
  C 431.89 145.97 430.10 137.46 431.32 130.81
  C 433.91 116.69 445.00 108.48 458.97 108.49
  Q 469.45 108.50 476.41 115.43
  A 0.35 0.34 22.5 0 0 477.00 115.19
  Z
  M 447.2102 135.2228
  A 14.75 13.72 -179.7 0 0 461.8882 149.0198
  A 14.75 13.72 -179.7 0 0 476.7098 135.3772
  A 14.75 13.72 -179.7 0 0 462.0318 121.5802
  A 14.75 13.72 -179.7 0 0 447.2102 135.2228
  Z"
/>
<path fill="#51b1d6" d="
  M 533.52 108.46
  C 550.13 108.38 564.06 119.55 564.15 136.84
  C 564.23 154.14 550.40 165.44 533.79 165.51
  C 517.18 165.59 503.25 154.43 503.17 137.13
  C 503.08 119.84 516.91 108.54 533.52 108.46
  Z
  M 547.60 134.71
  A 12.74 12.74 0.0 0 0 534.86 121.97
  L 532.46 121.97
  A 12.74 12.74 0.0 0 0 519.72 134.71
  L 519.72 139.29
  A 12.74 12.74 0.0 0 0 532.46 152.03
  L 534.86 152.03
  A 12.74 12.74 0.0 0 0 547.60 139.29
  L 547.60 134.71
  Z"
/>
<rect fill="#51b1d6" x="404.23" y="109.45" width="15.96" height="55.10" rx="0.39"/>
<path fill="#bf7cc5" d="
  M 700.63 152.15
  A 0.76 0.76 0.0 0 1 701.79 152.17
  L 704.72 155.76
  A 1.05 1.04 -42.9 0 1 704.66 157.16
  Q 695.87 166.21 681.04 164.97
  Q 665.57 163.67 658.61 150.13
  C 656.38 145.82 655.95 140.97 656.06 136.13
  C 656.43 119.29 670.63 107.96 687.09 110.56
  C 701.11 112.76 709.77 125.49 708.69 139.56
  A 0.48 0.48 0.0 0 1 708.21 140.01
  L 663.67 140.01
  A 0.57 0.56 86.4 0 0 663.11 140.65
  C 664.33 150.24 670.83 156.91 680.31 158.34
  C 687.59 159.44 695.75 157.77 700.63 152.15
  Z
  M 663.53 134.28
  L 701.25 134.34
  A 0.13 0.13 0.0 0 0 701.38 134.21
  L 701.38 134.05
  A 18.97 17.53 0.1 0 0 682.45 116.49
  L 682.41 116.49
  A 18.97 17.53 0.1 0 0 663.40 133.99
  L 663.40 134.15
  A 0.13 0.13 0.0 0 0 663.53 134.28
  Z"
/>
<path fill="#bf7cc5" d="
  M 755.47 156.88
  Q 750.30 164.44 740.02 165.02
  C 732.31 165.46 724.70 164.30 720.11 157.93
  Q 716.85 153.41 717.77 146.87
  C 719.00 138.15 727.75 134.23 735.74 134.25
  Q 736.84 134.26 754.94 134.22
  A 0.56 0.56 0.0 0 0 755.50 133.72
  C 756.33 125.15 753.28 117.99 743.96 116.80
  Q 732.12 115.28 722.55 122.67
  A 0.50 0.49 57.8 0 1 721.81 122.50
  L 719.28 117.61
  A 0.42 0.41 58.1 0 1 719.40 117.08
  C 725.49 112.57 732.55 110.37 740.01 110.20
  Q 748.48 110.02 753.84 113.00
  C 762.03 117.54 763.10 125.38 763.04 134.84
  Q 762.97 146.62 763.00 164.25
  A 0.31 0.30 -90.0 0 1 762.70 164.56
  L 756.12 164.56
  A 0.25 0.25 0.0 0 1 755.87 164.31
  L 755.87 157.01
  A 0.22 0.22 0.0 0 0 755.47 156.88
  Z
  M 754.93 139.82
  Q 738.56 139.65 733.59 140.09
  Q 727.30 140.66 725.27 146.11
  C 723.01 152.21 727.22 157.45 733.14 158.85
  C 742.25 161.00 751.00 158.04 755.40 149.24
  A 2.06 1.96 59.5 0 0 755.61 148.34
  L 755.61 140.50
  A 0.68 0.68 0.0 0 0 754.93 139.82
  Z"
/>
<circle fill="#ca8bce" cx="206.30" cy="130.76" r="17.31"/>
<path fill="#fffdfe" d="
  M 663.53 134.28
  A 0.13 0.13 0.0 0 1 663.40 134.15
  L 663.40 133.99
  A 18.97 17.53 0.1 0 1 682.41 116.49
  L 682.45 116.49
  A 18.97 17.53 0.1 0 1 701.38 134.05
  L 701.38 134.21
  A 0.13 0.13 0.0 0 1 701.25 134.34
  L 663.53 134.28
  Z"
/>
<ellipse fill="#fffdfe" cx="0.00" cy="0.00" transform="translate(461.96,135.30) rotate(-179.7)" rx="14.75" ry="13.72"/>
<rect fill="#fffdfe" x="519.72" y="121.97" width="27.88" height="30.06" rx="12.74"/>
<path fill="#fffdfe" d="
  M 755.61 140.50
  L 755.61 148.34
  A 2.06 1.96 59.5 0 1 755.40 149.24
  C 751.00 158.04 742.25 161.00 733.14 158.85
  C 727.22 157.45 723.01 152.21 725.27 146.11
  Q 727.30 140.66 733.59 140.09
  Q 738.56 139.65 754.93 139.82
  A 0.68 0.68 0.0 0 1 755.61 140.50
  Z"
/>
<path fill="#fffdfe" d="
  M 373.50 142.04
  Q 374.92 150.39 367.36 153.57
  Q 361.31 156.11 355.67 153.31
  C 351.71 151.34 351.90 145.35 355.32 142.96
  Q 356.86 141.88 362.02 141.63
  Q 366.59 141.41 372.96 141.57
  A 0.57 0.56 85.6 0 1 373.50 142.04
  Z"
/>
<circle fill="#bf7cc5" cx="137.99" cy="195.67" r="17.32"/>
</svg>
